<svg t="1569400148511" class="icon" viewBox="0 0 1024 1024" version="1.1" xmlns="http://www.w3.org/2000/svg" p-id="3746" width="200" height="200"><path d="M512 512m-508 0a508 508 0 1 0 1016 0 508 508 0 1 0-1016 0Z" fill="#6DB8E0" p-id="3747"></path><path d="M526.4 303.2m-102.4 0a102.4 102.4 0 1 0 204.8 0 102.4 102.4 0 1 0-204.8 0Z" fill="#FFCA0D" p-id="3748"></path><path d="M451.2 303.2c0-46.8 36-84.8 82-88.4-2.4 0-4.4-0.4-6.8-0.4-49.2 0-88.8 39.6-88.8 88.8 0 49.2 39.6 88.8 88.8 88.8 2.4 0 4.4 0 6.8-0.4-46-3.6-82-41.6-82-88.4z" fill="#E1AD26" p-id="3749"></path><path d="M590 377.2m-102.4 0a102.4 102.4 0 1 0 204.8 0 102.4 102.4 0 1 0-204.8 0Z" fill="#EDF0F2" p-id="3750"></path><path d="M518.4 376.8c0-45.6 34.8-82.8 79.2-86.8-2.4-0.4-5.2-0.4-7.6-0.4-48 0-87.2 38.8-87.2 87.2s38.8 87.2 87.2 87.2c2.8 0 5.2 0 7.6-0.4-44.4-4-79.2-41.2-79.2-86.8z" fill="#BBC2C6" p-id="3751"></path><path d="M434 377.2m-102.4 0a102.4 102.4 0 1 0 204.8 0 102.4 102.4 0 1 0-204.8 0Z" fill="#E15D4A" p-id="3752"></path><path d="M364.4 376.8c0-46.4 35.2-84.8 80.4-90-3.6-0.4-6.8-0.8-10.4-0.8-50 0-90.8 40.8-90.8 90.8s40.8 90.8 90.8 90.8c3.6 0 7.2-0.4 10.4-0.8-45.6-4.8-80.4-43.2-80.4-90z" fill="#D14736" p-id="3753"></path><path d="M616.8 553.2l-200.8-11.6c-52.4-44-26.8-98-10-122.4h-68c-30 125.6 53.2 146.8 53.2 146.8l120.8 340 2-5.6-90.4-338.8 193.2-8.4z" fill="#C66A29" p-id="3754"></path><path d="M656.4 419.2h-250.4c-16.4 24.4-42.4 78.4 10 122.4l200.8 11.6c63.2-33.6 49.2-104.4 39.6-134z" fill="#D88128" p-id="3755"></path><path d="M686 419.2h-10.8c27.2 110-46.4 139.2-46.4 139.2l-114 316.4 102-321.6-193.2 8.4 90.4 338.8 118.8-334.4s83.2-21.2 53.2-146.8z" fill="#D88128" p-id="3756"></path><path d="M628.8 558.4s73.6-29.6 46.4-139.2h-18.8c9.2 29.6 23.6 100.4-39.6 134l-102 321.6 114-316.4z" fill="#E69E39" p-id="3757"></path></svg>