<svg t="1569400045779" class="icon" viewBox="0 0 1024 1024" version="1.1" xmlns="http://www.w3.org/2000/svg" p-id="3593" width="200" height="200"><path d="M512 512m-508 0a508 508 0 1 0 1016 0 508 508 0 1 0-1016 0Z" fill="#F3756F" p-id="3594"></path><path d="M622 622.8c-46 6-92.8 9.2-138.8 16.4-94.4 14.8-187.2 45.2-282.8 40-6.4-0.4-13.6-1.2-18.4-5.6-4-4-4.8-9.6-5.6-15.2-4-27.6-7.6-56.4 0.4-83.2 2.8-9.2 6.8-17.6 10.8-26.4 25.2-54.4 52.4-111.2 102.4-147.6 31.6-23.2 70.8-36.4 110.4-43.2 117.6-20.4 248 19.2 320.8 108 31.2 38 50.8 82.8 70.4 127.2-56.4 11.2-112.4 22.4-169.6 29.6z" fill="#E7C462" p-id="3595"></path><path d="M271.6 580.8c3.6 2.8 4 8.4 3.2 12.8-2.8 14.8-15.2 25.6-28 33.2-12.8 7.6-27.2 12.8-39.2 22-5.6 4.4-10.8 10-17.6 13.2-6.4 3.2-15.2 3.6-20.4-1.6-2.4-2.4-3.6-5.2-5.2-8-2.4-3.6-5.6-6.4-8.4-9.6-2.8-3.2-4.4-7.6-3.6-12 1.2-4 6.4-7.2 10-4.8 2.4-5.2-0.8-11.2-2.8-16.8-2-5.6-1.6-13.2 3.6-15.2 3.6-1.2 8 0.8 11.6-0.8-2.8-8.8-0.4-19.2 6-25.6 6.4-6.4 16.8-9.2 25.6-6.4 4 1.2 8 3.6 11.6 5.6 13.6 6.8 29.2 9.6 44.4 11.6 3.6 0 6.8 0.4 9.2 2.4z" fill="#7E401D" p-id="3596"></path><path d="M202 560.4c-0.8-2-2.8-3.2-4.8-4.4-4-3.2-6.4-8.8-5.6-14 1.2-9.2 10.4-15.6 19.6-16.4 9.2-0.8 18.4 2.4 26.8 6 14 5.6 28.4 10.8 42.4 16.4 2 0.8 4 1.6 5.2 3.6 2.8 4.4-2 9.6-6.4 12.4-21.6 12.8-48.4 15.6-72.4 8-1.6-0.4-3.2-1.2-4-2.4-1.2-2.4 0.4-6.4-0.8-9.2z" fill="#FECC1D" p-id="3597"></path><path d="M458.4 366c14-18 27.6-35.6 41.6-53.6 1.6-2 3.2-4 5.6-4.8 4-1.2 8 1.2 11.2 4 2.4 2.4 5.2 6 3.2 8.8-0.8 1.2-2.4 2-3.6 2.4-8.4 4.4-14.4 12-20.4 19.2-26 32.8-51.6 65.6-77.6 98.4-3.2 4-7.6 8.4-12.4 7.2-5.2-1.6-7.2-9.2-12.4-10.8 25.2-20.4 45.2-45.6 64.8-70.8z" fill="#9ACA51" p-id="3598"></path><path d="M453.6 303.2c1.6 1.2 1.6 3.6 1.2 6-4.8 23.6-4.4 47.6-4.4 71.6 0.4 21.6 0.4 43.2 0.8 64.4 0 1.2 0 2.8-1.2 3.6-0.8 0.4-1.6 0.8-2.4 0.8-4.8 0-9.6 0.4-14.4 0.4-3.2-48.8-4-97.6-2-146.8 6.4 0 13.2-0.4 19.6-0.4 1.2-0.4 2-0.4 2.8 0.4zM497.6 328.4c1.6 1.2 1.6 3.6 1.2 6-4.8 23.6-4.4 47.6-4.4 71.6 0.4 21.6 0.4 43.2 0.8 64.4 0 1.2 0 2.8-1.2 3.6-0.8 0.4-1.6 0.8-2.4 0.8-4.8 0-9.6 0.4-14.4 0.4-3.2-48.8-4-97.6-2-146.8 6.4 0 13.2-0.4 19.6-0.4 1.2 0 2 0 2.8 0.4z" fill="#9BCC54" p-id="3599"></path><path d="M558 316.8c3.2 11.2 6.8 23.6 2.8 34.8-2 6-6 10.8-9.6 15.6l-69.6 90c-1.6-17.6-1.2-36.8 8.8-51.6 3.6-5.6 8.8-10.4 13.2-15.2 8.4-8.8 15.2-18.8 22.4-28.4 10.4-15.2 21.2-30.4 32-45.2z" fill="#9DCB51" p-id="3600"></path><path d="M344 483.6c-1.6-14 2-28.8-1.2-42.4-1.6-6-4.4-12-6-18-1.6-6.8-2-13.6-2-20.4-0.4-20-0.8-40-1.2-60.4 4.4-2.8 10.4-0.4 13.6 3.6 3.2 4 4.4 9.2 5.2 14.4 7.2 39.6 10 80 8 120.4 0 0.8 0 2-0.8 2.4-0.8 0.4-1.6 0.4-2.4 0.4H344z" fill="#9ECA51" p-id="3601"></path><path d="M570.4 419.6c6-15.6 16.8-29.6 21.2-46 2.4-8.4 2.8-17.2 2.4-26-0.4-4.4-0.8-9.2 0.4-13.6 1.2-4.4 4.4-8.4 9.2-9.2 2.4-0.4 4.8 0.4 7.2 1.2 2.8 1.2 6 2.4 7.6 4.8 2.8 3.6 2 9.2-0.4 13.2s-5.6 7.2-8.4 11.2c-4.8 6.8-6.8 14.4-8.8 22.4-1.2 4.4-2.4 8.4-3.6 12.8-6.4 24-13.2 48.4-17.6 73.2-0.4 3.2-1.2 6.8-4 8.8-4.4 2.8-13.2 0-14 5.2 0.8-19.6 1.6-39.6 8.8-58zM500.4 375.6c6-15.6 16.8-29.6 21.2-46 2.4-8.4 2.8-17.2 2.4-26-0.4-4.4-0.8-9.2 0.4-13.6 1.2-4.4 4.4-8.4 9.2-9.2 2.4-0.4 4.8 0.4 7.2 1.2 2.8 1.2 6 2.4 7.6 4.8 2.8 3.6 2 9.2-0.4 13.2s-5.6 7.2-8.4 11.2c-4.8 6.8-6.8 14.4-8.8 22.4-1.2 4.4-2.4 8.4-3.6 12.8-6.4 24-13.2 48.4-17.6 73.2-0.4 3.2-1.2 6.8-4 8.8-4.4 2.8-13.2 0-14 5.2 0.8-19.6 1.6-39.6 8.8-58z" fill="#9DCB51" p-id="3602"></path><path d="M396.4 458c-24.4-9.2-48.8-18.8-73.6-28-13.2-4.8-26.4-10-37.2-18.8-4-3.2-8-6.8-12.4-10-12.4-8.4-28.8-10.4-40-20.8 6.8-2.4 12.8-8 15.2-14.8 45.2 33.6 108 36.8 150.8 73.6 0.8 0.8 2 2 2.4 3.2 0.4 1.2 0 2.4-0.4 3.2-1.6 4-3.2 8.4-4.8 12.4z" fill="#9DC850" p-id="3603"></path><path d="M387.2 494.4c4.4-20.8-5.2-41.2-8-62.4-1.2-9.6-0.8-18.8-0.8-28.4 0-21.6-1.6-43.2-5.2-64.4h21.6c-4 30.4 4.4 61.2 4.4 92.4 0 8.8-0.8 18 0 26.8 1.2 12.4 5.2 24.8 4 37.2-5.2 1.2-11.2 0.8-16-1.2z" fill="#9BCC53" p-id="3604"></path><path d="M460.4 475.6c-8.4-19.2-28.4-30.4-42.8-46-6.4-7.2-11.6-14.8-17.2-22.8-12.4-17.6-26.4-34-41.6-49.6 6-4 11.6-8.4 17.6-12.4 14.8 27.2 39.2 47.6 57.2 72.4 5.2 7.2 10 14.8 16 21.6 8 9.6 18.4 17.2 24.8 28-3.6 4.4-8.4 7.6-14 8.8zM283.2 574.4c-8.4-19.2-28.4-30.4-42.8-46-6.4-7.2-11.6-14.8-17.2-22.8-12.4-17.6-26.4-34-41.6-49.6 6-4 11.6-8.4 17.6-12.4 14.8 27.2 39.2 47.6 57.2 72.4 5.2 7.2 10 14.8 16 21.6 8 9.6 18.4 17.2 24.8 28-3.6 4.8-8.4 7.6-14 8.8z" fill="#45B54B" p-id="3605"></path><path d="M425.6 438c1.6-21.2-11.2-40-16.4-60.4-2.4-9.2-3.6-18.8-4.8-28-3.2-21.2-7.6-42.4-14-63.2 7.2-1.2 14-2 21.2-3.2 0.4 30.8 12.8 60 17.2 90.8 1.2 8.8 2 18 4 26.8 2.8 12 8.4 23.6 9.2 36-4.8 2.4-10.8 2.8-16.4 1.2zM574.4 452.4c-8.4-19.2-28.4-30.4-42.8-46-6.4-7.2-11.6-14.8-17.2-22.8-12.4-17.6-26.4-34-41.6-49.6 6-4 11.6-8.4 17.6-12.4 14.8 27.2 39.2 47.6 57.2 72.4 5.2 7.2 10 14.8 16 21.6 8 9.6 18.4 17.2 24.8 28-3.6 4.4-8.4 7.6-14 8.8zM405.2 466.8c-8.4-19.2-28.4-30.4-42.8-46-6.4-7.2-11.6-14.8-17.2-22.8-12.4-17.6-26.4-34-41.2-49.6 6-4 11.6-8.4 17.6-12.4 14.8 27.2 39.2 47.6 57.2 72.4 5.2 7.2 10 14.8 16 21.6 8 9.6 18.4 17.2 24.8 28-3.6 4.4-8.8 7.6-14.4 8.8z" fill="#45B54B" p-id="3606"></path><path d="M552.4 483.2c21.6-17.6 51.6-22.4 73.2-40.4l10.8-9.6c8.8-7.2 19.6-11.2 30.4-15.6 13.6-5.2 26.8-10.4 40.4-15.6 4 2.8 4 9.6 1.2 14-2.8 4-8 6.4-12.4 8.8l-46.8 21.6c-7.2 3.2-14.4 6.4-21.2 10.4-23.6 13.2-44.8 32.4-71.2 37.2-0.8-4-2-7.6-4.4-10.8z" fill="#A1CA53" p-id="3607"></path><path d="M311.2 506.4c-4 5.6-15.6-0.8-18.4 5.2-1.2-38.8-2.8-78-5.2-116.8-0.4-7.6-0.8-15.6-1.6-23.2-0.4-5.2-0.8-10-1.6-15.2-1.2-7.2-2.8-16.4 3.6-20.4 5.2-2.8 12 0.8 14.4 6.4 2.4 5.6 2 11.6 1.6 17.6-2.8 47.2 12.8 94.4 8.8 141.6-0.8 2-0.8 3.6-1.6 4.8zM584.8 509.2c-6.8 1.2-10.4-11.6-16.8-9.6 26.8-28.4 53.2-57.2 78.8-86.4 5.2-5.6 10.4-11.6 15.2-17.6 3.2-4 6.8-7.6 9.6-12 4-6 9.6-13.6 16.8-12 5.6 1.6 8 9.2 6 14.8-2 5.6-6.8 9.6-11.2 13.6-35.2 31.6-57.6 76-94 106.4-1.6 1.2-2.8 2.4-4.4 2.8zM483.2 457.6c-4 5.6-15.6-0.8-18.4 5.2-1.2-38.8-2.8-78-5.2-116.8-0.4-7.6-0.8-15.6-1.6-23.2-0.4-5.2-0.8-10-1.6-15.2-1.2-7.2-2.8-16.4 3.6-20.4 5.2-2.8 12 0.8 14.4 6.4 2.4 5.6 2 11.6 1.6 17.6-2.8 47.2 12.8 94.4 8.8 141.6-0.4 1.6-0.4 3.6-1.6 4.8z" fill="#33B558" p-id="3608"></path><path d="M554.4 441.6c-25.2 12.4-50.8 24.8-76.8 34.8 1.2-4.8-0.4-10.4-4.4-14 58.8-28 117.2-57.2 174.8-88v15.6c0 2 0 4-1.2 5.6-0.8 1.6-2.8 2.4-4.4 3.2-29.2 14.4-58.8 28.4-88 42.8zM500.4 424.4c-25.2 12.4-50.8 24.8-76.8 34.8 1.2-4.8-0.4-10.4-4.4-14 58.8-28 117.2-57.2 174.8-88v15.6c0 2 0 4-1.2 5.6-0.8 1.6-2.8 2.4-4.4 3.2-29.2 14.4-58.4 28.4-88 42.8z" fill="#45B54B" p-id="3609"></path><path d="M249.2 437.2c7.2-12 14.8-24.8 26.8-32.4 21.2-13.6 49.2-8.8 72 2 20 9.6 38 23.6 52 40.8-31.2 23.6-62.4 47.2-94 70.8-16.8 12.8-34 25.6-52.4 35.2-5.6 2.8-13.6 5.2-17.6 0-1.6-2-2-4.8-2.4-7.6l-3.6-37.2c-0.8-8.8-1.6-17.6-0.8-26 2.8-16.4 11.6-31.2 20-45.6z" fill="#F04E2E" p-id="3610"></path><path d="M308 415.6c21.2 0 39.2 11.6 50 30 0.8 1.6 1.6 3.2 1.2 4.8-0.4 2.4-2.8 3.6-4.8 4.8-6 4-10 10.4-14.4 16-6 7.2-14 12.8-22 18.4-13.6 9.6-26.8 19.2-40.4 28.8-4.8 3.6-16.4 16-22.4 14.4-2-19.6-0.4-32.8-0.4-52.8 0-3.2 3.6-22.4 4.4-25.6 1.2-6.4 5.2-11.6 8.8-17.2 2.8-4 5.6-8 9.6-11.2 7.2-4.8 21.6-10.4 30.4-10.4z" fill="#DD2228" p-id="3611"></path><path d="M321.6 444.4m-5.2 0a5.2 5.2 0 1 0 10.4 0 5.2 5.2 0 1 0-10.4 0Z" fill="#EC6D31" p-id="3612"></path><path d="M300 440.4m-8.4 0a8.4 8.4 0 1 0 16.8 0 8.4 8.4 0 1 0-16.8 0Z" fill="#EC6D31" p-id="3613"></path><path d="M278.4 458m-8 0a8 8 0 1 0 16 0 8 8 0 1 0-16 0Z" fill="#EC6D31" p-id="3614"></path><path d="M278.4 483.6m-8 0a8 8 0 1 0 16 0 8 8 0 1 0-16 0Z" fill="#EC6D31" p-id="3615"></path><path d="M864.4 648.4c-0.4 4.8-5.6 7.6-10.8 8.4-4.8 0.8-10 0-14.4 2.4-2 1.2-4 3.2-6 4.4-5.6 3.2-12 1.6-18.4 2-4.4 0.4-8.8 1.6-13.2 1.2-4.4-0.4-8-2.8-11.6-5.2-31.2-22-47.2-64-38.4-101.2 0.4-1.6 0.8-3.6 2-4.8 2-2.4 5.6-2.8 8.8-2.8 17.2 0 36 4.8 44.8 19.2 0.8 1.6 1.6 2.8 3.2 4 2 1.6 4.4 1.6 6.8 1.6 7.2 0.4 14.8-0.4 21.6 2 6.8 2.4 12.8 9.6 10.8 16.4 7.2 1.2 14.8 4.8 18.8 10.8 4 6 4 15.6-1.6 20.4-2.4 2-5.2 3.2-6.4 6-1.6 5.2 4.4 10 4 15.2z" fill="#7E401D" p-id="3616"></path><path d="M715.2 534.8c14.4-7.6 30.8-10.8 47.2-9.6 4.8 0.4 10.4 1.6 13.6 5.2 2 2.4 2.8 5.6 5.6 6.4 2.4 0.8 5.2 0 7.6-0.8 8.8-2 18.8 3.6 21.2 12.4 0.4 1.6 0.8 3.6 1.6 5.2 2.8 4.8 10 4.8 14.4 8.4 4.4 3.6 4.8 10 5.2 15.6 0.4 9.2 0.8 18 0.8 27.2 0 1.2 0 2.8-0.8 3.6-0.4 0.4-1.2 0.8-2 0.8-6 1.2-12.4 0-17.6-3.6-2-1.6-4-3.6-6.4-4.4-2.8-1.2-6-1.2-9.2-1.2h-35.6c-1.6 0-3.2 0-4.4-0.8-2-1.6-1.6-4.4-1.6-6.8 0-4.8-2.4-9.6-6-12.4-7.2-5.6-18.8-4.8-24.8-11.6-3.2-3.6-4-8.4-4.8-13.2-1.6-6.8-2.8-13.6-4-20.4z" fill="#FECC1D" p-id="3617"></path><path d="M810 565.6c-6.4 3.2-13.6 10.4-19.2 5.6-2-1.6-2.4-4.4-3.6-6.8-4-8.8-16.4-12.8-24.8-8-2.8 1.6-5.2 4-8.4 4-3.6 0-6.4-3.2-8.8-6-13.2-17.2-26.4-34.4-39.2-51.6 48.4-0.4 94 19.2 138.4 38.8 6.4 2.8 13.2 6 17.6 11.6 4.8 6 6 13.6 7.2 20.8 1.2 7.6 2.4 16 0 23.2-2.4 7.6-10 14-17.6 12.4-8-1.6-12-10.4-14-18.4-1.6-8-2.8-16.8-8.8-22.4-5.2-5.2-12.8-6.4-18.8-3.2z" fill="#F16725" p-id="3618"></path><path d="M850.4 545.6c-2 7.6-10.4 12-18 12s-15.2-3.6-22-6.8c-33.2-15.6-67.2-28.8-102-39.6-9.6-3.2-19.2-6-28-11.2s-15.6-13.6-17.6-23.2c54 14.8 108 29.2 161.6 44 6.4 1.6 13.2 3.6 18.8 7.6 4.8 3.6 8.8 10.4 7.2 17.2z" fill="#FAFBEE" p-id="3619"></path><path d="M662.4 458.8c11.6-9.6 24-18 38-23.6 14-5.6 29.6-7.6 44-3.6 18 4.8 32.4 18.4 42.8 33.6 8.8 13.2 15.2 28.4 16 44-33.6-4.4-67.6-6-101.6-4.8-14.4 0.4-28.8 1.2-42.4-3.2-0.8-8.8-1.6-18-2.4-26.8-0.4-3.2-0.4-6 0.8-9.2 0-2.4 2.4-4.4 4.8-6.4z" fill="#F04E2E" p-id="3620"></path><path d="M743.2 451.6c3.6 1.2 7.2 4 10 6.4 12.4 10.4 23.6 23.2 27.6 38.8-30.4 0.4-61.2 0.8-91.6 0.4-2 0-4 0-5.6-1.2-1.2-0.8-2-2.4-2.4-3.6l-8.4-16.8c-0.4-0.8-0.8-2-0.8-2.8 0.4-0.8 0.8-1.2 1.6-2 16.4-12.4 36.8-20 57.2-20.8 4.4 0 8.4 0 12.4 1.6z" fill="#DD2228" p-id="3621"></path><path d="M756 482m-5.2 0a5.2 5.2 0 1 0 10.4 0 5.2 5.2 0 1 0-10.4 0Z" fill="#EC6D31" p-id="3622"></path><path d="M742.8 468.4m-5.2 0a5.2 5.2 0 1 0 10.4 0 5.2 5.2 0 1 0-10.4 0Z" fill="#EC6D31" p-id="3623"></path><path d="M722.8 468.4m-5.2 0a5.2 5.2 0 1 0 10.4 0 5.2 5.2 0 1 0-10.4 0Z" fill="#EC6D31" p-id="3624"></path><path d="M697.6 473.6m-5.2 0a5.2 5.2 0 1 0 10.4 0 5.2 5.2 0 1 0-10.4 0Z" fill="#EC6D31" p-id="3625"></path><path d="M731.6 487.2m-5.2 0a5.2 5.2 0 1 0 10.4 0 5.2 5.2 0 1 0-10.4 0Z" fill="#EC6D31" p-id="3626"></path><path d="M710.8 487.2m-5.2 0a5.2 5.2 0 1 0 10.4 0 5.2 5.2 0 1 0-10.4 0Z" fill="#EC6D31" p-id="3627"></path><path d="M474 395.6c-19.6-0.4-39.6-0.4-58.8 4.8-15.6 4.4-47.2 9.2-61.2 17.6-41.2 24-76.4 55.6-106.8 92.4-11.2 13.6-21.6 28-31.2 42.8-12.8 19.2-17.6 25.6-28.8 44-9.2 15.2-15.2 37.6-17.2 58.4-1.2 13.2 9.2 24.8 22.8 25.2 202.8 6 405.6 7.2 608.4 4 14-0.4 24.4-13.2 21.2-26.8-5.6-23.6-14.4-46.8-26.8-67.6-16-26.4-37.2-48.8-59.2-70-26.4-26-54.4-50-83.6-72.4-6.4-4.8-12.8-9.6-20-12.8-8.8-4-18-5.6-27.2-8.4-15.6-5.2-29.6-13.6-44.8-19.2-27.6-11.2-57.6-12-86.8-12z" fill="#F9DC7C" p-id="3628"></path><path d="M748 567.6c21.2 26.4 46.4 52.8 49.6 86.4 0 2 0.4 4-0.8 5.6-1.6 2.4-4.8 3.2-7.6 3.6-41.2 6.4-83.2 9.2-125.2 7.6 15.2-1.6 30.8-2.8 44.4-9.6s25.2-19.6 26-34.8c0.4-12.4-10-40-16.8-50.4-34.8-54-55.2-79.2-126.8-136 43.2 18 99.6 55.6 127.6 93.2 10.8 14.8 18.4 20 29.6 34.4zM233.6 556.8c-7.6 6.8-13.6 19.2-17.6 28.4-5.6 13.6-10 28-12.4 42.8-1.6 9.6-2 20 4 27.6 6.4 7.6 17.6 8.4 27.6 8.8 22.8 0.4 45.6 0.8 68 0.4-16.8 1.6-30-6-47.2-8.8-6.4-1.2-19.6-4.4-25.2-8.4-28-19.6-14-60 0.4-80 4.8-6.4 11.6-12.4 16-20.4-2.8-1.6-10.8 7.2-13.6 9.6z" fill="#F2C04B" p-id="3629"></path></svg>