<svg t="1569399912526" class="icon" viewBox="0 0 1024 1024" version="1.1" xmlns="http://www.w3.org/2000/svg" p-id="3347" width="200" height="200"><path d="M512 512m-508 0a508 508 0 1 0 1016 0 508 508 0 1 0-1016 0Z" fill="#F0C949" p-id="3348"></path><path d="M229.426144 386.436047a309.2 262 23.964 1 0 565.094438 251.17093 309.2 262 23.964 1 0-565.094438-251.17093Z" fill="#8A6842" p-id="3349"></path><path d="M250.626323 395.859018a286 242.4 23.964 1 0 522.694079 232.324988 286 242.4 23.964 1 0-522.694079-232.324988Z" fill="#9CCB47" p-id="3350"></path><path d="M666 447.2c2.8-0.8 6-2 9.2-1.6 2.8 0.4 5.6 2 8 4 7.6 7.6 7.2 22-1.2 28.8-4.8 4-12 6.4-14 12.4-1.2 4 0.4 8 2.8 11.2 12.8 17.6 43.2 14 54.8 32-3.6 8.8-14 12-23.2 14.8-8.8 2.8-19.2 8.4-19.6 17.6-0.8 16.8 28.8 23.2 27.2 39.6-0.8 9.2-11.2 14.4-20.4 14s-17.6-4.4-26.8-6-20 0.8-24 8.8c4.8 6.8 9.6 14.4 10.4 22.8 0.8 8.4-3.6 18-12 19.6-12.4-2.8-19.2-16.8-30.8-22.4-12-5.6-27.6 0.4-32.8 12-2.8 6-3.2 13.6-7.2 18.8-5.2 6.8-16 8-22.4 2.4-10.8-8.8-7.6-29.6-20.4-35.2-11.6-5.2-22.8 6.8-29.6 17.6-6.8 10.8-17.6 23.2-29.2 18.4-10.8-4-11.6-18.8-9.6-30s4.8-24.4-3.2-32.8c-6-6.4-16.4-6.8-24.4-3.6-8.4 3.2-15.2 8.8-22.4 13.6-2 1.2-4.4 2.8-6.8 3.2-6.8 0.8-12-6.8-11.2-13.6 0.4-6.8 4.8-12.4 8-18.4 3.2-6 6-12.8 3.6-19.2-2.4-6.4-9.6-10-16.4-10-6.8-0.4-13.6 2-20 4-7.6 2.4-16 4.8-24 4-8-0.8-16.4-4.8-20-12-5.6-11.2 2-24.4 11.6-32.4s21.2-13.2 29.2-22.8c-2.8-7.6-13.6-11.2-20-6.4 2 2 5.6 1.6 7.2-0.8-12.4-4-24.8-7.6-37.2-11.6-4.4-1.2-8.8-2.8-11.2-6.4-4-5.6-1.6-13.6 3.6-18s12-6.4 18.4-8l39.6-9.6c-2.4-12.8-19.6-15.2-32-19.2-6.8-2.4-12.8-6-18-10.8-6.8-6-11.6-16.4-6.4-23.6 4.8-6.8 15.6-6 22.8-2 7.2 4.4 12.8 10.8 19.6 15.2 7.2 4.4 17.6 5.2 22.8-1.6 7.6-9.6-3.6-22.8-4.8-35.2-0.4-6 1.6-11.6 4-17.2 0.8-2.4 2-4.8 4-6.8 5.6-5.2 14.8-0.8 19.6 4.8 4.8 6 8 13.6 14.8 16.8 7.6 4 17.2 1.2 23.2-4.8s8.8-14.4 9.6-22.8c1.2-10 2.4-23.2 12.4-25.6 12.4 7.2 16.4 23.2 21.6 36.8 5.2 13.6 17.2 28 31.2 24.4 6.8-1.6 12-7.2 16.8-12.4 8.4-9.6 16.8-18.8 25.2-28.4 8.4 5.6 13.6 16 12.8 26-0.8 12-8.8 25.2-1.6 34.4 7.2 9.6 22.4 5.2 32.4-1.6 9.6-6.8 20.4-16 32-13.2 7.6 2 13.6 9.6 13.2 17.6-0.4 12.4-13.6 22-12.8 34.4 0.8 9.2 9.2 16 18.4 17.6 8 3.6 17.2 1.2 25.6-1.6z" fill="#56A646" p-id="3351"></path><path d="M396.8 444c-4.8-10-7.6-21.6-3.6-32 4-10.4 17.6-16.8 26.8-10.8 8 5.2 10.4 16.8 18.8 20.4 15.2 6 24.4-17.6 39.2-24.4 10.8-4.8 24 0.4 31.6 8.8 8 8.8 11.6 20.4 15.2 31.6 7.6-8.8 16.4-17.2 27.6-20.4 11.2-3.2 25.6 1.2 29.2 12 2.4 6.4 0.8 13.6 1.6 20.4 0.8 6.8 6.8 14 13.2 12.4 3.6-1.2 6-4.4 9.6-6 7.2-3.2 15.6 3.2 18.8 10.8 3.2 7.2 4.4 15.6 9.2 22 4 5.2 10 8.4 14.4 13.2 11.2 12 8.4 33.6-5.2 42.8 6.4 5.2 13.2 10.8 17.2 18.4 4 7.6 4 17.6-1.6 23.6-12.4 12.8-36.8-2.4-50.8 8.8 3.6 8.4 6.8 20.4-1.2 25.2-16 10.4-32.4-32-47.6-20.4-2.4 2-4 4.8-5.6 7.6-8 12.8-23.6 19.6-38.4 16.8-14.8-2.8-26.8-15.2-29.6-29.6-0.8-4-1.2-8.4-4.4-10.4-2.4-1.6-5.6-1.6-8.8-1.2-11.6 1.2-23.2 2-34.8 3.2-1.6-11.6-3.2-23.6-10.4-32.4-7.2-8.8-22.4-12.4-30.4-3.6-11.6-8-24.4-14-37.6-18.4 12.8-10.8 27.2-24 25.6-40.8-0.8-8-4.8-17.2 0.4-23.6 3.6-4.8 11.6-6 13.2-11.6 2.4-4.4 0-8.4-1.6-12.4z" fill="#296636" p-id="3352"></path><path d="M436.8 425.6c3.2 3.6 4.4 9.2 8 12.4 7.2 6 17.6 0 24-6.8s12.8-15.2 22-14.8c17.2 1.2 21.6 32.8 38.8 30 10.4-1.6 15.6-16.4 26.4-16 11.2 0.4 13.6 15.6 13.2 26.4 0 11.2 6 26 16.4 22.8 5.2-1.6 8.4-7.2 13.6-8.4 7.6-1.6 13.2 7.6 14.4 15.2 1.2 7.6 1.2 16.8 7.6 21.2 3.6 2.8 9.6 4 10.8 8.4 1.2 4.8-4.4 8.4-6.8 12.8-4.4 8 1.2 17.2 5.2 25.2s4.8 20.8-4 23.2c-12.8 3.6-23.6-21.2-34-13.6-8 6-1.6 24.4-11.6 25.2-7.2 0.8-8.8-9.6-14.4-14-6.4-4.8-15.6-0.8-20.8 5.2-5.2 6-9.2 13.6-16 17.6-10 5.6-23.6 1.2-30.8-7.6-7.2-8.8-9.6-20.8-10-32.4-12.8 10-33.2 7.6-43.2-5.2-7.2-9.6-11.6-24.4-23.2-25.2-8-0.4-18.4 6-23.2-0.8 3.2-8.8 11.2-15.6 20.4-17.2-6.8-8.8-14-17.2-21.6-24.8 6.4 0.8 12-6 12.8-12.4 0.8-6.4-1.2-13.2-2.4-19.6-1.6-8.8-0.8-18.4 4.8-25.2 6-6.4 17.6-8.4 23.6-1.6z" fill="#4EA747" p-id="3353"></path><path d="M517.2 565.2c-10.8-5.2-10.8-25.2-22.8-25.6-3.6-0.4-6.8 1.6-10 2.8-16.8 6.4-38-3.6-43.6-20.4 11.2-9.6 7.2-29.6-4.8-38-2.8-2-6-3.6-8-6.4-1.6-2.8-1.6-6.4-1.6-9.6 0-6.4 0.4-12.4 0.4-18.8 0-2.4 0.4-5.2 2-6.4 3.2-2.4 7.6 0.8 10 4 6 7.2 12 14.8 18 22 1.2 1.6 2.4 2.8 4.4 3.2 1.6 0 2.8-1.2 4.4-2 10-8.4 20.4-16.8 30.4-25.2 6.4 3.6 8.4 11.6 10.8 18.8 2.4 7.2 6.8 14.8 14.4 14.8 12 0.4 18.4-20.4 30.4-17.2 6.8 2 8.8 10.4 8.8 17.2 0.4 6.8 0.4 15.2 6.4 18.8 7.6 4.8 17.2-1.6 23.6-8 5.2 2.4 9.6 6.4 12 11.6-12 10-16 28.4-9.2 42.8 0.8 2 2 4 2 6.4 0 1.6-0.8 2.8-2 4-6.8 8.8-22 8.8-28.8 0-2.8-3.6-5.6-9.2-10.4-8.8-1.2 0-2.4 0.8-3.6 1.6-5.6 4-9.6 9.6-14.8 14-5.2 4-12.4 7.2-18.4 4.4z" fill="#FDF6AB" p-id="3354"></path></svg>